<svg width="13" height="13" viewBox="0 0 13 13" fill="none" xmlns="http://www.w3.org/2000/svg">
<path d="M4.44629 6.49966C4.44629 7.63491 5.36475 8.55337 6.5 8.55337C7.63526 8.55337 8.55371 7.63491 8.55371 6.49966C8.55371 5.36441 7.63526 4.44595 6.5 4.44595C5.36475 4.44595 4.44629 5.36294 4.44629 6.49966ZM12.1836 4.30825L8.75147 4.4855C9.68311 5.57388 9.69776 7.14419 8.91407 8.34829L6.16016 12.5846C7.30274 12.6461 8.48047 12.3957 9.54688 11.776C12.1836 10.2526 13.2529 7.05776 12.1836 4.30825ZM3.6919 7.67007L1.39942 3.16128C0.750116 4.15351 0.404915 5.31386 0.406254 6.49966C0.406254 9.54653 2.63721 12.0705 5.55372 12.5172L7.11963 9.44985C5.70459 9.71646 4.33789 8.94009 3.6919 7.67007ZM6.89258 3.48794L11.9375 3.75308C11.4219 2.73062 10.6104 1.84146 9.54395 1.22183C8.57862 0.663722 7.51807 0.398585 6.47803 0.405909C4.6836 0.413234 2.93018 1.2145 1.75977 2.66909L3.6377 5.55337C4.10645 4.20718 5.46582 3.40444 6.89258 3.48794Z" fill="white"/>
</svg>
