<svg width="54" height="54" viewBox="0 0 54 54" fill="none" xmlns="http://www.w3.org/2000/svg">
<path d="M48.3419 25.5582L43.6068 27.9258L37.4766 16.186L42.2599 13.7944C42.6193 13.6147 43.0348 13.5833 43.4171 13.707C43.7994 13.8307 44.1178 14.0996 44.3038 14.4557L49.015 23.4781C49.1092 23.6585 49.1666 23.8559 49.1837 24.0587C49.2008 24.2615 49.1773 24.4656 49.1146 24.6593C49.052 24.8529 48.9514 25.0321 48.8187 25.1865C48.686 25.3408 48.5239 25.4672 48.3419 25.5582V25.5582Z" stroke="white" stroke-width="3.34375" stroke-linecap="round" stroke-linejoin="round"/>
<path d="M9.8909 27.7212L5.15577 25.3536C4.97373 25.2626 4.81164 25.1362 4.67897 24.9819C4.5463 24.8276 4.4457 24.6483 4.38303 24.4547C4.32037 24.2611 4.29691 24.0569 4.31401 23.8541C4.33112 23.6513 4.38845 23.4539 4.48265 23.2735L9.1939 14.2512C9.37987 13.895 9.69828 13.6261 10.0806 13.5024C10.4628 13.3787 10.8784 13.4101 11.2378 13.5898L16.0211 15.9814L9.8909 27.7212Z" stroke="white" stroke-width="3.34375" stroke-linecap="round" stroke-linejoin="round"/>
<path d="M43.6068 27.927L40.5417 31.5128L33.4925 38.562C33.3053 38.7491 33.0729 38.8846 32.8179 38.9552C32.5628 39.0259 32.2938 39.0293 32.0371 38.9651L20.9344 36.1894C20.7261 36.1373 20.5311 36.0421 20.362 35.9099L9.89062 27.7217" stroke="white" stroke-width="3.34375" stroke-linecap="round" stroke-linejoin="round"/>
<path d="M40.5431 31.5138L32.1141 25.3835L29.662 27.2226C28.6009 28.0184 27.3103 28.4487 25.9839 28.4487C24.6575 28.4487 23.3669 28.0184 22.3058 27.2226L21.2673 26.4438C21.0917 26.312 20.9464 26.1441 20.8413 25.9513C20.7362 25.7585 20.6737 25.5454 20.6582 25.3264C20.6426 25.1074 20.6743 24.8875 20.751 24.6818C20.8278 24.4761 20.9479 24.2893 21.1032 24.1341L28.6001 16.6371C28.7424 16.4948 28.9114 16.3819 29.0973 16.3049C29.2833 16.2279 29.4825 16.1882 29.6838 16.1882H37.478" stroke="white" stroke-width="3.34375" stroke-linecap="round" stroke-linejoin="round"/>
<path d="M16.1328 15.9809L25.9641 13.1147C26.3153 13.0123 26.6916 13.0389 27.0249 13.1898L33.6471 16.1862" stroke="white" stroke-width="3.34375" stroke-linecap="round" stroke-linejoin="round"/>
<path d="M23.6849 43.0075L17.9111 41.5641C17.6768 41.5055 17.4597 41.3924 17.2774 41.2339L12.957 37.4785" stroke="white" stroke-width="3.34375" stroke-linecap="round" stroke-linejoin="round"/>
</svg>
