<svg width="98" height="111" fill="none" xmlns="http://www.w3.org/2000/svg"><circle cx="49" cy="49" r="49" fill="#EDC5A2"/><path d="M48.5 111L36.809 95.25H60.19L48.5 111z" fill="#EDC5A2"/><path d="M46.856 28.8V40h-1.84v-7.984l-3.408 5.632h-.224L37.976 32v8h-1.84V28.8h1.984l3.376 5.6 3.392-5.6h1.968zM49.089 40V28.8h1.84v3.84h2.288c1.056 0 1.936.357 2.64 1.072.714.704 1.072 1.573 1.072 2.608 0 1.035-.358 1.91-1.072 2.624-.704.704-1.584 1.056-2.64 1.056h-4.128zm8.928 0V28.8h1.84V40h-1.84zm-7.088-1.728h2.288c.544 0 .992-.181 1.344-.544.352-.373.528-.843.528-1.408s-.176-1.03-.528-1.392c-.352-.373-.8-.56-1.344-.56h-2.288v3.904zm-22.957 26.92c1.142.544 1.712 1.445 1.712 2.704 0 .981-.373 1.781-1.12 2.4-.736.608-1.701.912-2.896.912-2.048 0-3.402-.864-4.064-2.592l1.584-.912c.33 1.184 1.158 1.776 2.48 1.776.704 0 1.243-.15 1.616-.448.374-.31.56-.72.56-1.232 0-.501-.181-.901-.544-1.2-.352-.31-.853-.464-1.504-.464h-1.36v-1.664h.992c.63 0 1.12-.144 1.472-.432.352-.288.528-.672.528-1.152 0-.48-.16-.859-.48-1.136-.32-.288-.778-.432-1.376-.432-1.11 0-1.856.507-2.24 1.52l-1.568-.912c.726-1.557 1.995-2.336 3.808-2.336 1.099 0 1.99.299 2.672.896.683.587 1.024 1.355 1.024 2.304 0 1.056-.432 1.856-1.296 2.4zm11.642 4.048h1.2v3.904h-1.84V71h-6.8v2.144h-1.84V69.24h1.04c.65-.853.976-2.139.976-3.856V59.8h7.264v9.44zm-6.224 0h4.384v-7.712H34.19v3.888c0 1.664-.267 2.939-.8 3.824zm10.867 0h4.96V71h-6.8V59.8h6.72v1.76h-4.88v2.912h4.48v1.744h-4.48v3.024zm11.846 1.968c-1.685 0-3.082-.555-4.192-1.664-1.109-1.12-1.663-2.501-1.663-4.144 0-1.643.554-3.019 1.663-4.128 1.11-1.12 2.507-1.68 4.192-1.68 1.014 0 1.947.24 2.8.72a5.22 5.22 0 012.017 1.952l-1.6.928a3.237 3.237 0 00-1.313-1.312 3.7 3.7 0 00-1.904-.496c-1.194 0-2.165.379-2.912 1.136-.736.757-1.104 1.717-1.104 2.88 0 1.163.368 2.123 1.104 2.88.747.757 1.718 1.136 2.912 1.136.704 0 1.344-.16 1.92-.48a3.233 3.233 0 001.296-1.328l1.6.912c-.469.821-1.136 1.477-2 1.968-.853.48-1.791.72-2.816.72zm10.473-7.568c1.056 0 1.936.357 2.64 1.072.715.704 1.072 1.573 1.072 2.608 0 1.045-.357 1.92-1.072 2.624-.704.704-1.584 1.056-2.64 1.056h-4.128V59.8h1.84v3.84h2.288zm0 5.632c.544 0 .992-.181 1.344-.544.352-.373.528-.843.528-1.408s-.176-1.03-.528-1.392c-.352-.373-.8-.56-1.344-.56h-2.288v3.904h2.288zm5.55-1.792L71.774 63v-3.2h2.08V63l-.368 4.48h-1.36zm1.536 3.36a1.156 1.156 0 01-.848.352c-.331 0-.614-.117-.848-.352a1.156 1.156 0 01-.352-.848 1.175 1.175 0 011.2-1.2c.33 0 .613.117.848.352.234.235.352.517.352.848 0 .33-.118.613-.352.848z" fill="#0A0C11"/></svg>