<svg width="133" height="20" fill="none" xmlns="http://www.w3.org/2000/svg"><path d="M17.787 6.896l-4.973-.721-2.223-4.494a.63.63 0 00-1.124 0L7.244 6.175l-4.973.72a.626.626 0 00-.347 1.067l3.598 3.498-.85 4.94a.622.622 0 00.572.728.627.627 0 00.337-.07l4.448-2.332 4.448 2.332a.624.624 0 00.909-.658l-.85-4.94 3.598-3.498a.624.624 0 00-.347-1.066zm28.079 0l-4.973-.721L38.67 1.68a.63.63 0 00-1.124 0l-2.223 4.494-4.973.72a.626.626 0 00-.347 1.067l3.598 3.498-.85 4.94a.623.623 0 00.909.658l4.448-2.332 4.448 2.332a.624.624 0 00.909-.658l-.85-4.94 3.598-3.498a.624.624 0 00-.347-1.066zm28.079 0l-4.973-.721L66.75 1.68a.63.63 0 00-1.124 0l-2.223 4.494-4.973.72a.626.626 0 00-.347 1.067l3.598 3.498-.85 4.94a.623.623 0 00.909.658l4.448-2.332 4.448 2.332a.624.624 0 00.909-.658l-.85-4.94 3.598-3.498a.624.624 0 00-.347-1.066zm28.08 0l-4.973-.721L94.83 1.68a.63.63 0 00-1.124 0l-2.223 4.494-4.973.72a.626.626 0 00-.347 1.067l3.598 3.498-.85 4.94a.623.623 0 00.572.728.627.627 0 00.337-.07l4.448-2.332 4.448 2.332a.624.624 0 00.909-.658l-.85-4.94 3.598-3.498a.623.623 0 00-.347-1.066zm28.079 0l-4.973-.721-2.223-4.494a.63.63 0 00-1.124 0l-2.223 4.494-4.973.72a.625.625 0 00-.347 1.067l3.598 3.498-.85 4.94a.622.622 0 00.572.728.626.626 0 00.337-.07l4.448-2.332 4.448 2.332a.624.624 0 00.909-.658l-.85-4.94 3.598-3.498a.623.623 0 00-.347-1.066z" fill="#EDC5A2"/></svg>